<?xml version="1.0" standalone="no"?>
<!DOCTYPE svg PUBLIC "-//W3C//DTD SVG 20010904//EN"
 "http://www.w3.org/TR/2001/REC-SVG-20010904/DTD/svg10.dtd">
<svg version="1.0" xmlns="http://www.w3.org/2000/svg"
 width="800.000000pt" height="800.000000pt" viewBox="0 0 800.000000 800.000000"
 preserveAspectRatio="xMidYMid meet">

<g transform="translate(0.000000,800.000000) scale(0.100000,-0.100000)"
fill="#000000" stroke="none">
<path d="M1340 7345 c-118 -32 -192 -91 -242 -193 -30 -61 -33 -74 -33 -162 1
-116 -22 -69 313 -640 676 -1151 985 -1674 1006 -1708 34 -53 99 -111 196
-176 47 -31 447 -307 889 -614 l804 -557 191 -285 c587 -874 740 -1100 778
-1144 133 -157 380 -127 476 58 36 71 38 189 3 256 -22 42 -314 547 -436 755
-29 50 -184 317 -345 595 -455 786 -458 790 -514 845 -31 30 -135 100 -261
177 -116 69 -473 286 -795 481 l-585 354 -103 174 c-120 203 -155 263 -537
914 -158 270 -319 543 -357 608 -38 65 -83 134 -101 153 -81 93 -232 140 -347
109z"/>
<path d="M5151 4714 c-142 -38 -272 -145 -334 -274 -97 -204 -57 -432 103
-591 104 -102 219 -149 368 -149 139 0 248 47 355 152 200 197 206 507 13 715
-64 69 -176 133 -264 152 -71 15 -175 13 -241 -5z"/>
<path d="M141 1768 c-56 -12 -127 -81 -137 -133 -10 -56 1 -129 25 -163 28
-40 847 -646 931 -689 88 -46 159 -63 260 -63 93 0 176 18 255 54 28 13 210
129 406 259 197 129 371 243 387 251 41 21 143 21 185 0 31 -16 106 -65 567
-364 113 -74 235 -146 272 -161 156 -64 363 -58 509 16 19 10 213 129 431 267
249 156 410 251 432 255 91 14 102 8 442 -249 410 -309 465 -336 671 -326 164
9 182 18 723 373 254 166 300 193 338 200 75 13 97 -2 485 -327 205 -170 383
-315 397 -320 82 -33 165 -13 224 52 56 63 62 169 13 234 -35 45 -736 631
-807 673 -150 91 -378 100 -533 22 -23 -12 -168 -104 -322 -204 -154 -100
-327 -212 -385 -249 l-105 -67 -71 3 -70 3 -321 242 c-176 133 -342 252 -369
266 -162 82 -374 86 -524 9 -30 -16 -227 -137 -438 -270 -404 -255 -434 -270
-522 -257 -58 9 -38 -2 -370 213 -157 102 -321 209 -365 237 -111 72 -155 93
-242 116 -135 34 -309 17 -423 -41 -22 -11 -194 -122 -380 -245 -450 -297
-416 -278 -498 -273 l-68 3 -422 312 c-232 172 -434 318 -449 326 -41 21 -82
25 -132 15z"/>
</g>
</svg>
